# xmcd
#
# Track frame offsets:
#	150
#	20412
#	38990
#	60147
#	78352
#	95750
#	115415
#	137757
#	155822
#	173677
#	189917
#	208365
#
# Disc length: 3077 seconds
# Revision: 4
# Processed by: cddbd v1.5.2PL0 Copyright (c) Steve Scherf et al.
# Submitted via: dBpowerAMP V12.0
#
DISCID=9d0c030c,a00c030c
DTITLE=Brenda Cochrane - In Dreams [dBP-LITE-1-FLAC@]
DYEAR=1991
DGENRE=Pop
TTITLE0=Homeland
TTITLE1=Crazy
TTITLE2=My Foolish Heart
TTITLE3=In Dreams
TTITLE4=Love Has No Pride
TTITLE5=Sacrifice
TTITLE6=Bridge Over Troubled Water
TTITLE7=Always On My Mind
TTITLE8=I Can't Let Go
TTITLE9=Desperado
TTITLE10=Unchained Melody
TTITLE11=Flame
EXTD=
EXTT0=
EXTT1=
EXTT2=
EXTT3=
EXTT4=
EXTT5=
EXTT6=
EXTT7=
EXTT8=
EXTT9=
EXTT10=
EXTT11=
PLAYORDER=
